HIERARCHY
ROOT hip
{
	OFFSET 0.000000 0.000000 0.000000 
	CHANNELS 6 Xposition Yposition Zposition Zrotation Xrotation Yrotation
	JOINT abdomen
	{
		OFFSET 0.000000 3.402643 0.000000 
		CHANNELS 3 Zrotation Xrotation Yrotation
		JOINT chest
		{
			OFFSET 0.000000 8.438565 -0.680529 
			CHANNELS 3 Zrotation Xrotation Yrotation
			JOINT neck
			{
				OFFSET 0.000000 10.207942 -0.272212 
				CHANNELS 3 Zrotation Xrotation Yrotation
				JOINT head
				{
					OFFSET 0.000000 3.130431 0.000000 
					CHANNELS 3 Zrotation Xrotation Yrotation
					End Site
					{
						OFFSET 0.000000 3.130435 0.000000 
					}
				}
			}
			JOINT lCollar
			{
				OFFSET 3.470700 6.669187 -0.816635 
				CHANNELS 3 Zrotation Xrotation Yrotation
				JOINT lShldr
				{
					OFFSET 3.198488 0.000000 0.000000 
					CHANNELS 3 Zrotation Xrotation Yrotation
					JOINT lForeArm
					{
						OFFSET 10.139888 0.000000 0.000000 
						CHANNELS 3 Zrotation Xrotation Yrotation
						JOINT lHand
						{
							OFFSET 8.370511 0.000000 0.000000 
							CHANNELS 3 Zrotation Xrotation Yrotation
							End Site
							{
								OFFSET 4.083176 0.000000 0.000000 
							}
						}
					}
				}
			}
			JOINT rCollar
			{
				OFFSET -3.470700 6.669187 -0.816635 
				CHANNELS 3 Zrotation Xrotation Yrotation
				JOINT rShldr
				{
					OFFSET -3.198488 0.000000 0.000000 
					CHANNELS 3 Zrotation Xrotation Yrotation
					JOINT rForeArm
					{
						OFFSET -10.139888 0.000000 0.000000 
						CHANNELS 3 Zrotation Xrotation Yrotation
						JOINT rHand
						{
							OFFSET -8.370511 0.000000 0.000000 
							CHANNELS 3 Zrotation Xrotation Yrotation
							End Site
							{
								OFFSET -4.083176 0.000000 0.000000 
							}
						}
					}
				}
			}
		}
	}
	JOINT lThigh
	{
		OFFSET 5.308129 -1.633274 1.361059 
		CHANNELS 3 Zrotation Xrotation Yrotation
		JOINT lShin
		{
			OFFSET -2.041588 -20.007561 0.000000 
			CHANNELS 3 Zrotation Xrotation Yrotation
			JOINT lFoot
			{
				OFFSET 0.000000 -19.190928 -1.224953 
				CHANNELS 3 Zrotation Xrotation Yrotation
				End Site
				{
					OFFSET 0.000000 -2.449906 4.627600 
				}
			}
		}
	}
	JOINT rThigh
	{
		OFFSET -5.308129 -1.633274 1.361059 
		CHANNELS 3 Zrotation Xrotation Yrotation
		JOINT rShin
		{
			OFFSET 2.041588 -20.007561 0.000000 
			CHANNELS 3 Zrotation Xrotation Yrotation
			JOINT rFoot
			{
				OFFSET 0.000000 -19.190928 -1.224953 
				CHANNELS 3 Zrotation Xrotation Yrotation
				End Site
				{
					OFFSET 0.000000 -2.449906 4.627600 
				}
			}
		}
	}
}
MOTION
Frames: 11
Frame Time: 0.033333
0.961439 49.113598 -0.966527 -2.002254 0.995460 -96.967484 -0.327004 -9.765471 -15.436328 -0.851574 9.520452 23.597942 -0.000001 0.996091 48.994148 0.000000 -8.007811 -2.001953 -2.572675 -1.338653 0.234197 0.000000 0.000000 -7.001953 -14.174495 -52.084118 -23.280773 -113.282677 20.198784 -31.657301 -19.910990 7.777321 -20.651894 -21.827913 1.167039 73.036957 47.052750 6.043712 140.221909 -0.035761 0.292237 3.336615 0.303213 5.227230 -0.598111 -2.505058 6.474650 -0.059823 1.093427 -9.986972 8.762527 -3.087270 7.227003 -0.461852 1.440751 -1.215015 -4.131558 3.680971 0.070343 18.820848 
0.961439 48.891460 -0.966527 -2.002254 0.995460 -96.967484 -0.327004 -9.765471 -15.436328 -0.851574 9.520452 23.597942 -0.000001 0.996091 48.994148 0.000000 -8.007811 -2.001953 -2.572675 -1.338653 0.234197 0.000000 0.000000 -7.001953 -14.174495 -52.084118 -23.280773 -113.282677 20.198784 -31.657301 -19.910990 7.777321 -20.651894 -21.827913 1.167039 73.036957 47.052750 6.043712 140.221909 -0.035761 0.292237 3.336615 0.283859 5.228857 -0.588721 -2.346632 6.481170 -0.081663 0.862375 -9.948086 8.684211 -3.087545 7.237110 -0.450959 1.445702 -1.220213 -4.199998 3.678957 0.093635 18.829821 
0.961439 48.891460 -0.966527 -2.002254 0.995460 -96.967484 -0.327004 -9.765471 -15.436328 -0.851574 9.520452 23.597942 -0.000001 0.996091 48.994148 0.000000 -8.007811 -2.001953 -2.572675 -1.338653 0.234197 0.000000 0.000000 -7.001953 -14.174495 -52.084118 -23.280773 -113.282677 20.198784 -31.657301 -19.910990 7.777321 -20.651894 -21.827913 1.167039 73.036957 47.052750 6.043712 140.221909 -0.035761 0.292237 3.336615 0.303669 5.244375 -0.491146 -2.299461 6.497636 -0.094973 0.859205 -9.988657 8.648734 -3.078875 7.239564 -0.420991 1.421680 -1.215898 -4.229157 3.667169 0.118779 18.885593 
0.961439 48.891457 -0.966527 -2.002254 0.995460 -96.967484 -0.327004 -9.765471 -15.436328 -0.851574 9.520452 23.597942 -0.000001 0.996091 48.994148 0.000000 -8.007811 -2.001953 -2.572675 -1.338653 0.234197 0.000000 0.000000 -7.001953 -14.174495 -52.084118 -23.280773 -113.282677 20.198784 -31.657301 -19.910990 7.777321 -20.651894 -21.827913 1.167039 73.036957 47.052750 6.043712 140.221909 -0.035761 0.292237 3.336615 0.293605 5.238141 -0.589255 -2.396630 6.484090 -0.068100 0.937509 -9.954206 8.714489 -3.078875 7.239564 -0.420991 1.431263 -1.206011 -4.219186 3.744212 0.176829 18.841345 
0.961439 48.891460 -0.966527 -2.002254 0.995460 -96.967484 -0.327004 -9.765471 -15.436328 -0.851574 9.520452 23.597942 -0.000001 0.996091 48.994148 0.000000 -8.007811 -2.001953 -2.572675 -1.338653 0.234197 0.000000 0.000000 -7.001953 -14.174495 -52.084118 -23.280773 -113.282677 20.198784 -31.657301 -19.910990 7.777321 -20.651894 -21.827913 1.167039 73.036957 47.052750 6.043712 140.221909 -0.035761 0.292237 3.336615 0.293605 5.238141 -0.589255 -2.358502 6.487585 -0.070870 0.965053 -10.025840 8.763322 -3.078875 7.239564 -0.420991 1.431263 -1.206011 -4.219186 3.759034 0.136149 18.890787 
0.961439 48.891464 -0.966527 -2.002254 0.995460 -96.967484 1.048843 -9.266054 -15.211734 -0.851574 9.520452 23.597942 -0.000001 0.996091 48.994148 0.000000 -8.007811 -2.001953 -2.572675 -1.338653 0.234197 -5.510715 -1.028211 -7.198431 -18.119873 -49.506615 -28.990347 -113.265617 16.885946 -26.136992 -19.910990 7.777321 -20.651894 -22.438877 0.014105 73.056641 53.063240 -16.197924 134.413315 3.235497 -1.119519 3.329461 0.323376 5.246369 -0.589377 -2.330747 6.497848 -0.063352 0.871061 -9.999580 8.715925 -3.087545 7.237110 -0.450959 1.462493 -1.217332 -4.180549 3.673431 0.129040 18.851244 
0.961439 48.891460 -0.966527 -2.002254 0.995460 -96.967484 4.095799 -8.309100 -14.787969 -0.851574 9.520452 23.597942 -0.000001 0.996091 48.994148 0.000000 -8.007811 -2.001953 -2.572675 -1.338653 0.234197 -18.116264 -3.503841 -7.641322 -24.712967 -42.861191 -40.277302 -112.533730 8.683119 -14.043708 -19.910990 7.777321 -20.651894 -21.963326 -2.740812 73.362473 50.307308 -61.336113 127.779671 10.921117 -4.446691 3.273502 0.323376 5.246369 -0.589377 -2.330747 6.497848 -0.063352 0.845908 -9.992801 8.683491 -3.087961 7.247570 -0.449881 1.459243 -1.233816 -4.210343 3.667481 0.128363 18.842142 
0.961439 48.891460 -0.966527 -2.002254 0.995460 -96.967484 7.174461 -7.703616 -14.414163 -0.851574 9.520452 23.597942 -0.000001 0.996091 48.994148 0.000000 -8.007811 -2.001953 -2.572675 -1.338653 0.234197 -31.938736 -6.545470 -8.129517 -28.752258 -34.772636 -50.802391 -110.979660 -1.083878 -1.113475 -19.910990 7.777321 -20.651894 -16.925694 -5.996136 74.207664 -21.758976 -86.151924 62.610531 19.814161 -8.312047 3.155505 0.323376 5.246369 -0.589377 -2.330747 6.497848 -0.063352 0.899213 -10.040731 8.770530 -3.087961 7.247570 -0.449881 1.459243 -1.233816 -4.210343 3.676227 0.131326 18.838644 
0.961439 48.891460 -0.966527 -2.002254 0.995460 -96.967484 9.064538 -8.044156 -14.101923 -0.851574 9.520452 23.597942 -0.000001 0.996091 48.994148 0.000000 -8.007811 -2.001953 -2.572675 -1.338653 0.234197 -42.221577 -9.459674 -8.465553 -29.878796 -28.134501 -58.321281 -110.193726 -9.042840 9.065060 -19.910990 7.777321 -20.651894 -4.692463 -8.932434 75.382126 76.072098 -71.521912 160.725037 27.279934 -11.598781 3.012054 0.313093 5.256661 -0.590324 -2.376158 6.491576 -0.069855 0.912619 -9.967358 8.724363 -3.079288 7.250023 -0.419912 1.449420 -1.243411 -4.230081 3.671807 0.151624 18.881855 
0.961439 48.891460 -0.966527 -2.002254 0.995460 -96.967484 9.964907 -8.899125 -13.823987 -0.851574 9.520452 23.597942 -0.000001 0.996091 48.994148 0.000000 -8.007811 -2.001953 -2.572675 -1.338653 0.234197 -48.923706 -12.180666 -8.583316 -29.800354 -23.100605 -64.058357 -109.962372 -14.981337 16.785477 -19.910990 7.777321 -20.651894 13.751619 -11.414816 76.685051 72.067146 -27.388834 157.916183 32.896866 -14.099187 2.873923 0.313093 5.256661 -0.590324 -2.376158 6.491576 -0.069855 0.869819 -10.027873 8.730577 -3.088791 7.268487 -0.447723 1.481487 -1.256147 -4.152354 3.651880 0.133798 18.858133 
0.961439 48.891460 -0.966527 -2.002254 0.995460 -96.967484 10.450902 -9.606665 -13.615983 -0.851574 9.520452 23.597942 -0.000001 0.996091 48.994148 0.000000 -8.007811 -2.001953 -2.572675 -1.338653 0.234197 -53.203537 -14.826256 -8.416930 -29.544296 -18.968994 -69.336578 -108.950523 -19.553562 23.153795 -19.910990 7.777321 -20.651894 36.568806 -13.493194 77.962067 60.524082 9.102551 161.534546 36.784573 -15.842820 2.771479 0.313093 5.256661 -0.590324 -2.493832 6.489413 -0.061109 0.996474 -9.976243 8.730069 -3.088791 7.268487 -0.447723 1.474756 -1.230124 -4.229986 3.728428 0.095776 18.904936 
